<mxfile host="app.diagrams.net" modified="2022-12-16T10:47:15.586Z" agent="5.0 (Windows NT 10.0; Win64; x64) AppleWebKit/537.36 (KHTML, like Gecko) Chrome/108.0.0.0 Safari/537.36" version="20.6.2" etag="u8zSvJltX0ZpAsy_oG3Q" type="github">
  <diagram id="fYm7p4MlBtT5PSIiRXfB" name="Page-1">
    <mxGraphModel dx="1247" dy="677" grid="1" gridSize="10" guides="1" tooltips="1" connect="1" arrows="1" fold="1" page="1" pageScale="1" pageWidth="827" pageHeight="1169" math="0" shadow="0">
      <root>
        <mxCell id="0" />
        <mxCell id="1" parent="0" />
        <mxCell id="17ElD72lSgdF9IkeAED9-1" value="User" style="swimlane;whiteSpace=wrap;html=1;" vertex="1" parent="1">
          <mxGeometry x="20" y="230" width="140" height="200" as="geometry" />
        </mxCell>
        <mxCell id="17ElD72lSgdF9IkeAED9-4" value="Web Application" style="sketch=0;aspect=fixed;pointerEvents=1;shadow=0;dashed=0;html=1;strokeColor=none;labelPosition=center;verticalLabelPosition=bottom;verticalAlign=top;align=center;fillColor=#00188D;shape=mxgraph.azure.laptop" vertex="1" parent="17ElD72lSgdF9IkeAED9-1">
          <mxGeometry x="45" y="40" width="50" height="30" as="geometry" />
        </mxCell>
        <mxCell id="17ElD72lSgdF9IkeAED9-5" value="Smartphone/USSD App" style="html=1;verticalLabelPosition=bottom;align=center;labelBackgroundColor=#ffffff;verticalAlign=top;strokeWidth=2;strokeColor=#0080F0;shadow=0;dashed=0;shape=mxgraph.ios7.icons.smartphone;" vertex="1" parent="17ElD72lSgdF9IkeAED9-1">
          <mxGeometry x="61" y="116" width="18" height="30" as="geometry" />
        </mxCell>
        <mxCell id="17ElD72lSgdF9IkeAED9-2" value="Front-End Technologies" style="swimlane;whiteSpace=wrap;html=1;" vertex="1" parent="1">
          <mxGeometry x="214" y="230" width="186" height="200" as="geometry" />
        </mxCell>
        <mxCell id="17ElD72lSgdF9IkeAED9-6" value="React" style="shape=image;html=1;verticalAlign=top;verticalLabelPosition=bottom;labelBackgroundColor=#ffffff;imageAspect=0;aspect=fixed;image=https://cdn1.iconfinder.com/data/icons/unicons-line-vol-5/24/react-128.png" vertex="1" parent="17ElD72lSgdF9IkeAED9-2">
          <mxGeometry x="16" y="30" width="64" height="64" as="geometry" />
        </mxCell>
        <mxCell id="17ElD72lSgdF9IkeAED9-7" value="Angular" style="shape=image;html=1;verticalAlign=top;verticalLabelPosition=bottom;labelBackgroundColor=#ffffff;imageAspect=0;aspect=fixed;image=https://cdn0.iconfinder.com/data/icons/long-shadow-web-icons/512/angular-symbol-128.png" vertex="1" parent="17ElD72lSgdF9IkeAED9-2">
          <mxGeometry x="24" y="130" width="48" height="48" as="geometry" />
        </mxCell>
        <mxCell id="17ElD72lSgdF9IkeAED9-8" value="Flutter" style="shape=image;html=1;verticalAlign=top;verticalLabelPosition=bottom;labelBackgroundColor=#ffffff;imageAspect=0;aspect=fixed;image=https://cdn2.iconfinder.com/data/icons/boxicons-logos/24/bxl-flutter-128.png" vertex="1" parent="17ElD72lSgdF9IkeAED9-2">
          <mxGeometry x="106" y="80" width="58" height="58" as="geometry" />
        </mxCell>
        <mxCell id="17ElD72lSgdF9IkeAED9-3" value="Server Technologies" style="swimlane;whiteSpace=wrap;html=1;" vertex="1" parent="1">
          <mxGeometry x="440" y="230" width="200" height="200" as="geometry" />
        </mxCell>
        <mxCell id="17ElD72lSgdF9IkeAED9-9" value="NodeJS" style="outlineConnect=0;dashed=0;verticalLabelPosition=bottom;verticalAlign=top;align=center;html=1;shape=mxgraph.aws3.android;fillColor=#8CC64F;gradientColor=none;" vertex="1" parent="17ElD72lSgdF9IkeAED9-3">
          <mxGeometry x="80" y="34" width="40" height="46" as="geometry" />
        </mxCell>
        <mxCell id="17ElD72lSgdF9IkeAED9-10" value="Redis" style="sketch=0;aspect=fixed;html=1;points=[];align=center;image;fontSize=12;image=img/lib/mscae/Cache_Redis_Product.svg;" vertex="1" parent="17ElD72lSgdF9IkeAED9-3">
          <mxGeometry x="20" y="96" width="50" height="42" as="geometry" />
        </mxCell>
      </root>
    </mxGraphModel>
  </diagram>
</mxfile>
